REM DIRINDEX 1\5,1\2\6,1\2\7,1\3\8,1\3\9,1\4\10,1\4\11,1\4\12
REM DIRNAME cjc026,folder01,folder02,folder03,folder04,folder05,folder06,folder07,folder08,folder09,folder10,folder11
TITLE ""
FILE "EJE_DB3000_5th_3B_08.mp3" MP3
  TRACK 01 AUDIO
    TITLE "0:"
    INDEX 01 00:00:00
  TRACK 02 AUDIO
    TITLE "10:cjc026_08577"
    INDEX 01 00:00:08
  TRACK 03 AUDIO
    TITLE "0:"
    INDEX 01 00:01:33
  TRACK 04 AUDIO
    TITLE "11:cjc026_08578"
    INDEX 01 00:01:68
  TRACK 05 AUDIO
    TITLE "0:"
    INDEX 01 00:03:04
  TRACK 06 AUDIO
    TITLE "12:cjc026_08579"
    INDEX 01 00:03:39
  TRACK 07 AUDIO
    TITLE "0:"
    INDEX 01 00:04:64
  TRACK 08 AUDIO
    TITLE "10:cjc026_08580"
    INDEX 01 00:05:27
  TRACK 09 AUDIO
    TITLE "0:"
    INDEX 01 00:06:49
  TRACK 10 AUDIO
    TITLE "11:cjc026_08581"
    INDEX 01 00:07:12
  TRACK 11 AUDIO
    TITLE "0:"
    INDEX 01 00:08:26
  TRACK 12 AUDIO
    TITLE "12:cjc026_08582"
    INDEX 01 00:08:61
  TRACK 13 AUDIO
    TITLE "0:"
    INDEX 01 00:10:11
  TRACK 14 AUDIO
    TITLE "10:cjc026_08583"
    INDEX 01 00:10:46
  TRACK 15 AUDIO
    TITLE "0:"
    INDEX 01 00:11:71
  TRACK 16 AUDIO
    TITLE "11:cjc026_08584"
    INDEX 01 00:12:34
  TRACK 17 AUDIO
    TITLE "0:"
    INDEX 01 00:13:45
  TRACK 18 AUDIO
    TITLE "12:cjc026_08585"
    INDEX 01 00:14:08
  TRACK 19 AUDIO
    TITLE "0:"
    INDEX 01 00:15:33
  TRACK 20 AUDIO
    TITLE "10:cjc026_08586"
    INDEX 01 00:15:68
  TRACK 21 AUDIO
    TITLE "0:"
    INDEX 01 00:17:26
  TRACK 22 AUDIO
    TITLE "11:cjc026_08587"
    INDEX 01 00:17:61
  TRACK 23 AUDIO
    TITLE "0:"
    INDEX 01 00:19:08
  TRACK 24 AUDIO
    TITLE "12:cjc026_08588"
    INDEX 01 00:19:43
  TRACK 25 AUDIO
    TITLE "0:"
    INDEX 01 00:21:01
  TRACK 26 AUDIO
    TITLE "10:cjc026_08589"
    INDEX 01 00:21:36
  TRACK 27 AUDIO
    TITLE "0:"
    INDEX 01 00:22:67
  TRACK 28 AUDIO
    TITLE "11:cjc026_08590"
    INDEX 01 00:23:27
  TRACK 29 AUDIO
    TITLE "0:"
    INDEX 01 00:24:54
  TRACK 30 AUDIO
    TITLE "12:cjc026_08591"
    INDEX 01 00:25:15
  TRACK 31 AUDIO
    TITLE "0:"
    INDEX 01 00:26:45
  TRACK 32 AUDIO
    TITLE "10:cjc026_08592"
    INDEX 01 00:27:05
  TRACK 33 AUDIO
    TITLE "0:"
    INDEX 01 00:28:24
  TRACK 34 AUDIO
    TITLE "11:cjc026_08593"
    INDEX 01 00:28:60
  TRACK 35 AUDIO
    TITLE "0:"
    INDEX 01 00:30:18
  TRACK 36 AUDIO
    TITLE "12:cjc026_08594"
    INDEX 01 00:30:53
  TRACK 37 AUDIO
    TITLE "0:"
    INDEX 01 00:31:72
  TRACK 38 AUDIO
    TITLE "10:cjc026_08595"
    INDEX 01 00:32:32
  TRACK 39 AUDIO
    TITLE "0:"
    INDEX 01 00:33:60
  TRACK 40 AUDIO
    TITLE "11:cjc026_08596"
    INDEX 01 00:34:20
  TRACK 41 AUDIO
    TITLE "0:"
    INDEX 01 00:35:29
  TRACK 42 AUDIO
    TITLE "12:cjc026_08597"
    INDEX 01 00:35:64
  TRACK 43 AUDIO
    TITLE "0:"
    INDEX 01 00:37:16
  TRACK 44 AUDIO
    TITLE "10:cjc026_08598"
    INDEX 01 00:37:51
  TRACK 45 AUDIO
    TITLE "0:"
    INDEX 01 00:39:07
  TRACK 46 AUDIO
    TITLE "11:cjc026_08599"
    INDEX 01 00:39:42
  TRACK 47 AUDIO
    TITLE "0:"
    INDEX 01 00:40:51
  TRACK 48 AUDIO
    TITLE "12:cjc026_08600"
    INDEX 01 00:41:11
  TRACK 49 AUDIO
    TITLE "0:"
    INDEX 01 00:42:41
  TRACK 50 AUDIO
    TITLE "10:cjc026_08601"
    INDEX 01 00:43:01
  TRACK 51 AUDIO
    TITLE "0:"
    INDEX 01 00:44:34
  TRACK 52 AUDIO
    TITLE "11:cjc026_08602"
    INDEX 01 00:44:69
  TRACK 53 AUDIO
    TITLE "0:"
    INDEX 01 00:46:14
  TRACK 54 AUDIO
    TITLE "12:cjc026_08603"
    INDEX 01 00:46:46
  TRACK 55 AUDIO
    TITLE "0:"
    INDEX 01 00:48:07
  TRACK 56 AUDIO
    TITLE "10:cjc026_08604"
    INDEX 01 00:48:45
  TRACK 57 AUDIO
    TITLE "0:"
    INDEX 01 00:49:67
  TRACK 58 AUDIO
    TITLE "11:cjc026_08605"
    INDEX 01 00:50:30
  TRACK 59 AUDIO
    TITLE "0:"
    INDEX 01 00:51:49
  TRACK 60 AUDIO
    TITLE "12:cjc026_08606"
    INDEX 01 00:52:12
  TRACK 61 AUDIO
    TITLE "0:"
    INDEX 01 00:53:37
  TRACK 62 AUDIO
    TITLE "10:cjc026_08607"
    INDEX 01 00:53:72
  TRACK 63 AUDIO
    TITLE "0:"
    INDEX 01 00:55:24
  TRACK 64 AUDIO
    TITLE "11:cjc026_08608"
    INDEX 01 00:55:62
  TRACK 65 AUDIO
    TITLE "0:"
    INDEX 01 00:57:23
  TRACK 66 AUDIO
    TITLE "12:cjc026_08609"
    INDEX 01 00:57:58
  TRACK 67 AUDIO
    TITLE "0:"
    INDEX 01 00:59:11
  TRACK 68 AUDIO
    TITLE "10:cjc026_08610"
    INDEX 01 00:59:48
  TRACK 69 AUDIO
    TITLE "0:"
    INDEX 01 01:01:09
  TRACK 70 AUDIO
    TITLE "11:cjc026_08611"
    INDEX 01 01:01:44
  TRACK 71 AUDIO
    TITLE "0:"
    INDEX 01 01:02:66
  TRACK 72 AUDIO
    TITLE "12:cjc026_08612"
    INDEX 01 01:03:29
  TRACK 73 AUDIO
    TITLE "0:"
    INDEX 01 01:04:65
